<svg xmlns="http://www.w3.org/2000/svg" xml:space="preserve" width="100.5mm" height="100.5mm" version="1.1"
     style="shape-rendering:geometricPrecision; text-rendering:geometricPrecision; image-rendering:optimizeQuality; fill-rule:evenodd; clip-rule:evenodd"
     viewBox="0 0 10050 10050"
>
  <g id="Слой_x0020_1">
  <metadata id="CorelCorpID_0Corel-Layer"/>
    <path fill="white"
          d="M6676 6244c0,-287 1269,-1017 1733,-1017 146,0 366,-6 366,250l0 750c0,211 -401,283 -633,283 -238,0 -1466,71 -1466,-266zm-5399 -17l0 -750c0,-599 1233,41 1374,126 156,95 726,450 726,641 0,333 -1194,266 -1433,266 -244,0 -667,-63 -667,-283zm3749 -4932c147,0 262,6 384,16 127,10 272,-9 399,2 238,19 501,24 741,58 255,36 458,55 699,100 229,43 434,95 632,168 112,42 95,49 152,249l259 940c56,212 111,414 170,630l180 620 -853 130c-871,124 -1880,194 -2763,194 -586,0 -1061,-30 -1634,-73l-1765 -218c-74,-12 -136,-33 -216,-33l597 -2202c48,-164 24,-159 169,-231 324,-160 880,-234 1319,-280l564 -36c84,-2 93,-17 183,-18 280,-3 509,-16 783,-16zm-3999 1850c-348,0 -545,-7 -737,162 -223,197 -419,843 -89,1047 112,70 285,57 460,57 -15,182 -217,647 -217,916l0 3799c0,157 143,284 300,284l1483 0c157,0 300,-127 300,-284l0 -966 4999 0 0 966c0,157 143,284 300,284l1483 0c156,0 299,-127 299,-284l0 -3765c0,-211 -52,-330 -96,-487l-137 -463c349,0 650,27 650,-450 0,-265 -120,-528 -262,-654 -205,-179 -389,-162 -754,-162 -8,-98 -337,-1120 -373,-1244 -143,-487 -203,-708 -701,-916 -1095,-457 -4710,-464 -5796,5 -480,208 -580,373 -734,899l-378 1256z"/>
 </g>
</svg>
